# xmcd CD database file
#
# Track frame offsets:
#	150
#	22357
#	41632
#	61267
#	79582
#	96852
#	115920
#	131245
#	146557
#	162345
#	181707
#
# Disc length: 2649 seconds
#
# Revision: 3
# Processed by: cddbd v1.5.2PL0 Copyright (c) Steve Scherf et al.
# Submitted via: CDex 1.51
#
DISCID=960a570b
DTITLE=John Berry - Wildest Dreams
DYEAR=1999
DGENRE=Country
TTITLE0=Love Is For Giving
TTITLE1=Rescued Me
TTITLE2=Love Was Made For Us
TTITLE3=Salvation
TTITLE4=Where Would I Be
TTITLE5=Power Windows
TTITLE6=Until I'm Loving You
TTITLE7=Rivers In The Clouds
TTITLE8=You'll Be In My Heart
TTITLE9=You're The Voice
TTITLE10=The One You Love
EXTD=YEAR: 1999
EXTT0=
EXTT1=
EXTT2=
EXTT3=
EXTT4=
EXTT5=
EXTT6=
EXTT7=
EXTT8=
EXTT9=
EXTT10=
PLAYORDER=
